<svg width="176" height="126" viewBox="0 0 176 126" fill="none" xmlns="http://www.w3.org/2000/svg">
<path fill-rule="evenodd" clip-rule="evenodd" d="M87.0879 65.2894C105.118 65.2894 119.736 50.6716 119.736 32.6419C119.736 14.6178 105.118 0 87.0879 0C69.0611 0 54.4487 14.6178 54.4487 32.6419C54.4487 50.6716 69.0607 65.2894 87.0879 65.2894ZM169.332 53.6478C169.332 64.773 160.311 73.7878 149.186 73.7878C138.064 73.7878 129.043 64.773 129.043 53.6478C129.043 42.5226 138.064 33.5016 149.186 33.5016C160.311 33.5016 169.332 42.5226 169.332 53.6478ZM166.25 76.8844C169.625 80.2569 174.083 87.806 174.981 93.1999C177.197 106.456 163.03 111.256 149.186 111.256C143.878 111.256 138.528 110.548 134.066 108.933C135.322 104.887 135.574 100.449 134.798 95.7603C134.02 91.0837 131.867 85.6529 129.152 80.5403C130.155 79.0838 131.185 77.8279 132.128 76.8844C132.573 76.4375 134.557 76.3342 135.096 76.6668C139.199 79.1902 144.019 80.6754 149.186 80.6754C154.359 80.6754 159.179 79.1902 163.282 76.6668C163.818 76.3342 165.805 76.4375 166.25 76.8844ZM109.932 69.9455C110.807 69.4041 114.024 69.5844 114.732 70.2897C120.214 75.7664 127.44 88.01 128.894 96.7384C132.478 118.238 109.514 126 87.0879 126C64.6684 126 41.7035 118.238 45.2878 96.7384C46.7415 88.01 53.9672 75.7664 59.4497 70.2897C60.1581 69.5844 63.3752 69.4037 64.2496 69.9455C70.9014 74.0403 78.7154 76.4375 87.0879 76.4375C95.4665 76.4375 103.277 74.0403 109.932 69.9455ZM26.0248 73.7878C37.1473 73.7878 46.1679 64.773 46.1679 53.6478C46.1679 42.5226 37.1473 33.5016 26.0248 33.5016C14.8993 33.5016 5.87863 42.5226 5.87863 53.6478C5.87863 64.773 14.8993 73.7878 26.0248 73.7878ZM45.4654 79.7176C42.5432 85.0653 40.2125 90.8486 39.3864 95.7603C38.5866 100.586 38.8707 105.128 40.2125 109.257C35.9544 110.647 30.9653 111.256 26.0248 111.256C12.1811 111.256 -1.98362 106.456 0.229785 93.1999C1.13048 87.806 5.57749 80.2566 8.96091 76.8844C9.40544 76.4375 11.395 76.3342 11.9316 76.6668C16.0316 79.1902 20.8547 80.6754 26.0248 80.6754C31.1942 80.6754 36.0142 79.1902 40.1177 76.6668C40.6566 76.3342 42.6408 76.4375 43.0853 76.8844C43.8368 77.6359 44.6509 78.6051 45.4654 79.7176Z" fill="url(#paint0_radial_97_8)"/>
<defs>
<radialGradient id="paint0_radial_97_8" cx="0" cy="0" r="1" gradientUnits="userSpaceOnUse" gradientTransform="translate(87.6056 6.42215e-06) rotate(90) scale(117 152.925)">
<stop stop-color="white"/>
<stop offset="1" stop-color="#FF7500"/>
</radialGradient>
</defs>
</svg>
