<svg width="126" height="126" viewBox="0 0 126 126" fill="none" xmlns="http://www.w3.org/2000/svg">
<path d="M0 99.7418V110.25C0 118.937 21.1641 126 47.25 126C73.3359 126 94.5 118.937 94.5 110.25V99.7418C84.3363 106.903 65.7562 110.25 47.25 110.25C28.7438 110.25 10.1637 106.903 0 99.7418ZM78.75 31.5C104.836 31.5 126 24.4371 126 15.75C126 7.06289 104.836 0 78.75 0C52.6641 0 31.5 7.06289 31.5 15.75C31.5 24.4371 52.6641 31.5 78.75 31.5ZM0 73.9266V86.625C0 95.3121 21.1641 102.375 47.25 102.375C73.3359 102.375 94.5 95.3121 94.5 86.625V73.9266C84.3363 82.2937 65.7316 86.625 47.25 86.625C28.7684 86.625 10.1637 82.2937 0 73.9266ZM102.375 76.6336C116.476 73.902 126 68.8324 126 63V52.4918C120.291 56.5277 111.899 59.284 102.375 60.982V76.6336ZM47.25 39.375C21.1641 39.375 0 48.1852 0 59.0625C0 69.9398 21.1641 78.75 47.25 78.75C73.3359 78.75 94.5 69.9398 94.5 59.0625C94.5 48.1852 73.3359 39.375 47.25 39.375ZM101.218 53.2301C115.984 50.5723 126 45.3551 126 39.375V28.8668C117.264 35.0438 102.252 38.366 86.4527 39.1535C93.7125 42.6727 99.0527 47.3977 101.218 53.2301Z" fill="url(#paint0_radial_97_9)"/>
<defs>
<radialGradient id="paint0_radial_97_9" cx="0" cy="0" r="1" gradientUnits="userSpaceOnUse" gradientTransform="translate(20.0068 9.79054) rotate(53.0171) scale(129.491)">
<stop stop-color="white"/>
<stop offset="1" stop-color="#FF7500"/>
</radialGradient>
</defs>
</svg>
