<svg width="75" height="56" viewBox="0 0 75 56" fill="none" xmlns="http://www.w3.org/2000/svg">
<path d="M34.4122 54.3872C34.7562 54.8846 35.2166 55.2913 35.7536 55.5722C36.2906 55.8532 36.8882 56 37.4949 56C38.1016 56 38.6992 55.8532 39.2362 55.5722C39.7732 55.2913 40.2336 54.8846 40.5777 54.3872L74.3303 5.8572C74.721 5.29745 74.9501 4.64183 74.9927 3.96156C75.0354 3.2813 74.8899 2.60241 74.5721 1.99867C74.2544 1.39492 73.7765 0.8894 73.1903 0.537034C72.6042 0.184668 71.9323 -0.00106894 71.2476 4.62772e-06H3.74227C3.05913 0.00281343 2.38969 0.190939 1.80592 0.544149C1.22216 0.897359 0.746175 1.40229 0.429147 2.00464C0.112119 2.60699 -0.033952 3.28397 0.00664101 3.96278C0.047234 4.64159 0.272956 5.29654 0.659532 5.8572L34.4122 54.3872Z" fill="white"/>
</svg>
