<svg width="56" height="56" viewBox="0 0 56 56" fill="none" xmlns="http://www.w3.org/2000/svg">
<path fill-rule="evenodd" clip-rule="evenodd" d="M6.22221 28C6.22221 23.1187 7.85555 18.6169 10.5809 14.98L41.02 45.4191C37.3831 48.1445 32.8813 49.7778 28 49.7778C15.9942 49.7778 6.22221 40.0058 6.22221 28ZM49.7778 28C49.7778 32.8813 48.1445 37.3831 45.4191 41.02L14.98 10.5809C18.6169 7.85555 23.1187 6.22221 28 6.22221C40.0058 6.22221 49.7778 15.9942 49.7778 28ZM28 0C12.5347 0 0 12.5347 0 28C0 43.4653 12.5347 56 28 56C43.4653 56 56 43.4653 56 28C56 12.5347 43.4653 0 28 0Z" fill="white"/>
</svg>
